<svg width="46" height="46" viewBox="0 0 46 46" fill="none" xmlns="http://www.w3.org/2000/svg">
<g filter="url(#filter0_d_2_11)">
<g clip-path="url(#clip0_2_11)">
<path d="M143.609 98C138.929 93.2421 138.811 88.6603 138.713 84.2548C138.615 80.0255 138.498 76.0312 134.365 71.8215C130.233 67.6118 126.237 67.4356 122.007 67.2594C117.581 67.0636 113.017 66.8678 108.336 62.1098C103.656 57.3519 103.538 52.7702 103.44 48.3647C103.342 44.1354 103.225 40.141 99.0922 35.9313C94.9597 31.7216 90.9643 31.5454 86.7339 31.3692C82.3076 31.1734 77.7442 30.9776 73.0634 26.2196C68.3825 21.4617 68.265 16.88 68.167 12.4745C68.0691 8.24519 67.9516 4.25085 63.8191 0.041153C59.6866 -4.16855 55.6912 -4.34478 51.4608 -4.521C47.0346 -4.7168 42.4712 -4.9126 37.7903 -9.67055C33.1094 -14.4285 32.9919 -19.0102 32.894 -23.4157C32.7961 -27.645 32.6786 -31.6393 28.5461 -35.849C24.4136 -40.0587 20.4182 -40.235 16.1878 -40.4112C11.7615 -40.607 7.19815 -40.8028 2.51728 -45.5607C-2.1636 -50.3187 -2.28111 -54.9004 -2.37904 -59.3059C-2.47696 -63.5352 -2.59447 -67.5295 -6.72696 -71.7392C-10.8594 -75.9489 -14.8548 -76.1251 -19.0853 -76.3014C-23.5115 -76.4972 -28.0749 -76.693 -32.7558 -81.4509C-37.4366 -86.2089 -37.5541 -90.7906 -37.6521 -95.1961C-37.75 -99.4254 -37.8675 -103.42 -42 -107.629L-40.6094 -109C-35.9286 -104.242 -35.8111 -99.6603 -35.7131 -95.2548C-35.6152 -91.0255 -35.4977 -87.0312 -31.3652 -82.8215C-27.2327 -78.6118 -23.2373 -78.4356 -19.0069 -78.2594C-14.5806 -78.0636 -10.0173 -77.8678 -5.33641 -73.1098C-0.655533 -68.3519 -0.538021 -63.7701 -0.440094 -59.3646C-0.342167 -55.1354 -0.224651 -51.141 3.90784 -46.9313C8.04032 -42.7216 12.0357 -42.5454 16.2661 -42.3692C20.6924 -42.1734 25.2558 -41.9776 29.9366 -37.2196C34.6175 -32.4617 34.735 -27.88 34.8329 -23.4745C34.9309 -19.2452 35.0484 -15.2509 39.1809 -11.0411C43.3134 -6.83144 47.3087 -6.65523 51.5392 -6.479C55.9654 -6.2832 60.5288 -6.08739 65.2097 -1.32945C69.8905 3.4285 70.0081 8.01022 70.106 12.4157C70.2039 16.645 70.3214 20.6393 74.4539 24.849C78.5864 29.0587 82.5818 29.235 86.8122 29.4112C91.2385 29.607 95.8018 29.8028 100.483 34.5607C105.164 39.3187 105.281 43.9004 105.379 48.3059C105.477 52.5352 105.594 56.5295 109.727 60.7392C113.859 64.9489 117.855 65.1252 122.085 65.3014C126.512 65.4972 131.075 65.693 135.756 70.4509C140.437 75.2089 140.554 79.7906 140.652 84.1961C140.75 88.4254 140.868 92.4197 145 96.6294L143.609 98Z" fill="#B8142F"/>
<path d="M140.609 105C135.929 100.242 135.811 95.6603 135.713 91.2548C135.615 87.0255 135.498 83.0312 131.365 78.8215C127.233 74.6118 123.237 74.4356 119.007 74.2594C114.581 74.0636 110.017 73.8678 105.336 69.1098C100.656 64.3519 100.538 59.7702 100.44 55.3647C100.342 51.1354 100.225 47.141 96.0922 42.9313C91.9597 38.7216 87.9643 38.5454 83.7339 38.3692C79.3076 38.1734 74.7442 37.9776 70.0634 33.2197C65.3825 28.4617 65.265 23.88 65.167 19.4745C65.0691 15.2452 64.9516 11.2509 60.8191 7.04115C56.6866 2.83145 52.6912 2.65523 48.4608 2.47901C44.0346 2.28321 39.4712 2.0874 34.7903 -2.67055C30.1094 -7.42849 29.9919 -12.0102 29.894 -16.4157C29.7961 -20.645 29.6786 -24.6393 25.5461 -28.849C21.4136 -33.0587 17.4182 -33.235 13.1878 -33.4112C8.76152 -33.607 4.19815 -33.8028 -0.482723 -38.5607C-5.1636 -43.3187 -5.28111 -47.9004 -5.37904 -52.3059C-5.47696 -56.5352 -5.59447 -60.5295 -9.72696 -64.7392C-13.8594 -68.9489 -17.8548 -69.1251 -22.0853 -69.3014C-26.5115 -69.4972 -31.0749 -69.693 -35.7558 -74.4509C-40.4366 -79.2089 -40.5542 -83.7906 -40.6521 -88.1961C-40.75 -92.4254 -40.8675 -96.4197 -45 -100.629L-43.6094 -102C-38.9286 -97.2421 -38.8111 -92.6603 -38.7131 -88.2548C-38.6152 -84.0255 -38.4977 -80.0312 -34.3652 -75.8215C-30.2327 -71.6118 -26.2373 -71.4356 -22.0069 -71.2594C-17.5806 -71.0636 -13.0173 -70.8678 -8.33641 -66.1098C-3.65554 -61.3519 -3.53802 -56.7701 -3.4401 -52.3646C-3.34217 -48.1354 -3.22466 -44.141 0.907829 -39.9313C5.04032 -35.7216 9.03571 -35.5454 13.2661 -35.3692C17.6924 -35.1734 22.2558 -34.9776 26.9366 -30.2196C31.6175 -25.4617 31.735 -20.88 31.8329 -16.4745C31.9309 -12.2452 32.0484 -8.25085 36.1809 -4.04115C40.3134 0.168556 44.3087 0.344788 48.5392 0.521011C52.9654 0.716805 57.5288 0.912605 62.2097 5.67055C66.8905 10.4285 67.0081 15.0102 67.106 19.4157C67.2039 23.645 67.3214 27.6393 71.4539 31.849C75.5864 36.0587 79.5818 36.235 83.8122 36.4112C88.2385 36.607 92.8018 36.8028 97.4827 41.5607C102.164 46.3187 102.281 50.9004 102.379 55.3059C102.477 59.5352 102.594 63.5295 106.727 67.7392C110.859 71.9489 114.855 72.1252 119.085 72.3014C123.512 72.4972 128.075 72.693 132.756 77.4509C137.437 82.2089 137.554 86.7906 137.652 91.1961C137.75 95.4254 137.868 99.4197 142 103.629L140.609 105Z" fill="#750013"/>
<path d="M131.617 112C126.961 107.242 126.844 102.66 126.747 98.2548C126.649 94.0255 126.532 90.0312 122.422 85.8215C118.312 81.6118 114.338 81.4356 110.13 81.2594C105.727 81.0636 101.188 80.8678 96.5325 76.1098C91.8766 71.3519 91.7598 66.7701 91.6623 62.3646C91.5649 58.1353 91.4481 54.141 87.3377 49.9313C83.2273 45.7216 79.2532 45.5454 75.0455 45.3692C70.6429 45.1734 66.1039 44.9776 61.4481 40.2196C56.7922 35.4617 56.6753 30.88 56.5779 26.4745C56.4805 22.2452 56.3636 18.2508 52.2532 14.0411C48.1429 9.83144 44.1688 9.65522 39.961 9.479C35.5584 9.2832 31.0195 9.08739 26.3636 4.32945C21.7078 -0.42849 21.5909 -5.01022 21.4935 -9.41573C21.3961 -13.645 21.2792 -17.6393 17.1688 -21.849C13.0584 -26.0587 9.08442 -26.235 4.87663 -26.4112C0.474033 -26.607 -4.06494 -26.8028 -8.72078 -31.5607C-13.3766 -36.3187 -13.4935 -40.9004 -13.5909 -45.3059C-13.6883 -49.5352 -13.8052 -53.5295 -17.9156 -57.7392C-22.026 -61.9489 -26 -62.1251 -30.2078 -62.3014C-34.6104 -62.4972 -39.1494 -62.693 -43.8052 -67.4509C-48.461 -72.2089 -48.5779 -76.7906 -48.6753 -81.1961C-48.7727 -85.4254 -48.8896 -89.4197 -53 -93.6294L-51.6169 -95C-46.961 -90.2421 -46.8442 -85.6603 -46.7468 -81.2548C-46.6494 -77.0255 -46.5325 -73.0312 -42.4221 -68.8215C-38.3117 -64.6118 -34.3377 -64.4356 -30.1299 -64.2594C-25.7273 -64.0636 -21.1883 -63.8678 -16.5325 -59.1098C-11.8766 -54.3519 -11.7597 -49.7701 -11.6623 -45.3646C-11.5649 -41.1354 -11.4481 -37.141 -7.33766 -32.9313C-3.22727 -28.7216 0.746754 -28.5454 4.95454 -28.3692C9.35714 -28.1734 13.8961 -27.9776 18.5519 -23.2196C23.2078 -18.4617 23.3247 -13.88 23.4221 -9.47447C23.5195 -5.24519 23.6364 -1.25085 27.7467 2.95885C31.8571 7.16856 35.8312 7.34478 40.039 7.521C44.4416 7.7168 48.9805 7.9126 53.6364 12.6705C58.2922 17.4285 58.4091 22.0102 58.5065 26.4157C58.6039 30.645 58.7208 34.6393 62.8312 38.849C66.9416 43.0587 70.9156 43.235 75.1234 43.4112C79.526 43.607 84.0649 43.8028 88.7208 48.5607C93.3766 53.3187 93.4935 57.9004 93.5909 62.3059C93.6883 66.5352 93.8052 70.5295 97.9156 74.7392C102.026 78.9489 106 79.1251 110.208 79.3014C114.61 79.4971 119.149 79.6929 123.805 84.4509C128.461 89.2088 128.578 93.7906 128.675 98.1961C128.773 102.425 128.89 106.42 133 110.629L131.617 112Z" fill="#838383"/>
<path d="M126.609 119C121.929 114.242 121.811 109.66 121.713 105.255C121.615 101.026 121.498 97.0312 117.365 92.8215C113.233 88.6118 109.237 88.4356 105.007 88.2594C100.581 88.0636 96.0173 87.8678 91.3364 83.1098C86.6555 78.3519 86.538 73.7701 86.4401 69.3646C86.3421 65.1353 86.2246 61.141 82.0922 56.9313C77.9597 52.7216 73.9643 52.5454 69.7339 52.3692C65.3076 52.1734 60.7442 51.9776 56.0634 47.2196C51.3825 42.4617 51.265 37.88 51.167 33.4745C51.0691 29.2452 50.9516 25.2508 46.8191 21.0411C42.6866 16.8314 38.6912 16.6552 34.4608 16.479C30.0346 16.2832 25.4712 16.0874 20.7903 11.3295C16.1094 6.57152 15.9919 1.98978 15.894 -2.41572C15.7961 -6.645 15.6786 -10.6393 11.5461 -14.849C7.41359 -19.0587 3.4182 -19.235 -0.812214 -19.4112C-5.23848 -19.607 -9.80185 -19.8028 -14.4827 -24.5607C-19.1636 -29.3187 -19.2811 -33.9004 -19.379 -38.3059C-19.477 -42.5352 -19.5945 -46.5295 -23.727 -50.7392C-27.8594 -54.9489 -31.8548 -55.1251 -36.0853 -55.3014C-40.5115 -55.4972 -45.0749 -55.693 -49.7558 -60.4509C-54.4366 -65.2089 -54.5541 -69.7906 -54.6521 -74.1961C-54.75 -78.4254 -54.8675 -82.4197 -59 -86.6294L-57.6094 -88C-52.9286 -83.2421 -52.8111 -78.6603 -52.7131 -74.2548C-52.6152 -70.0255 -52.4977 -66.0312 -48.3652 -61.8215C-44.2327 -57.6118 -40.2373 -57.4356 -36.0069 -57.2594C-31.5806 -57.0636 -27.0173 -56.8678 -22.3364 -52.1098C-17.6555 -47.3519 -17.538 -42.7701 -17.4401 -38.3646C-17.3422 -34.1354 -17.2247 -30.141 -13.0922 -25.9313C-8.95968 -21.7216 -4.96429 -21.5454 -0.733875 -21.3692C3.69239 -21.1734 8.25575 -20.9776 12.9366 -16.2196C17.6175 -11.4617 17.735 -6.87996 17.8329 -2.47446C17.9309 1.75483 18.0484 5.74915 22.1809 9.95886C26.3134 14.1686 30.3087 14.3448 34.5392 14.521C38.9654 14.7168 43.5288 14.9126 48.2097 19.6705C52.8905 24.4285 53.0081 29.0102 53.106 33.4157C53.2039 37.645 53.3214 41.6393 57.4539 45.849C61.5864 50.0587 65.5818 50.235 69.8122 50.4112C74.2385 50.607 78.8018 50.8028 83.4827 55.5607C88.1636 60.3187 88.2811 64.9004 88.379 69.3059C88.4769 73.5352 88.5945 77.5295 92.7269 81.7392C96.8594 85.9489 100.855 86.1251 105.085 86.3014C109.512 86.4972 114.075 86.693 118.756 91.4509C123.437 96.2089 123.554 100.791 123.652 105.196C123.75 109.425 123.868 113.42 128 117.629L126.609 119Z" fill="#2E2D2D"/>
<path d="M120.609 126C115.929 121.242 115.811 116.66 115.713 112.255C115.615 108.026 115.498 104.031 111.365 99.8215C107.233 95.6118 103.237 95.4356 99.0069 95.2594C94.5806 95.0636 90.0173 94.8678 85.3364 90.1098C80.6555 85.3519 80.538 80.7701 80.4401 76.3646C80.3422 72.1353 80.2246 68.141 76.0922 63.9313C71.9597 59.7216 67.9643 59.5454 63.7339 59.3692C59.3076 59.1734 54.7442 58.9776 50.0634 54.2196C45.3825 49.4617 45.265 44.88 45.1671 40.4744C45.0691 36.2452 44.9516 32.2508 40.8191 28.0411C36.6866 23.8314 32.6912 23.6552 28.4608 23.479C24.0346 23.2832 19.4712 23.0874 14.7903 18.3294C10.1094 13.5715 9.99193 8.98978 9.894 4.58427C9.79607 0.354988 9.67857 -3.63934 5.54608 -7.84904C1.4136 -12.0587 -2.5818 -12.235 -6.81222 -12.4112C-11.2385 -12.607 -15.8018 -12.8028 -20.4827 -17.5607C-25.1636 -22.3187 -25.2811 -26.9004 -25.379 -31.3059C-25.477 -35.5352 -25.5945 -39.5295 -29.727 -43.7392C-33.8594 -47.9489 -37.8548 -48.1251 -42.0853 -48.3014C-46.5115 -48.4972 -51.0749 -48.693 -55.7558 -53.4509C-60.4366 -58.2089 -60.5541 -62.7906 -60.6521 -67.1961C-60.75 -71.4254 -60.8675 -75.4197 -65 -79.6294L-63.6094 -81C-58.9286 -76.2421 -58.8111 -71.6603 -58.7131 -67.2548C-58.6152 -63.0255 -58.4977 -59.0312 -54.3652 -54.8215C-50.2327 -50.6118 -46.2373 -50.4356 -42.0069 -50.2594C-37.5806 -50.0636 -33.0173 -49.8678 -28.3364 -45.1098C-23.6555 -40.3519 -23.538 -35.7701 -23.4401 -31.3646C-23.3422 -27.1354 -23.2247 -23.141 -19.0922 -18.9313C-14.9597 -14.7216 -10.9643 -14.5454 -6.73387 -14.3692C-2.30761 -14.1734 2.25576 -13.9776 6.93663 -9.21964C11.6175 -4.4617 11.735 0.120026 11.8329 4.52553C11.9309 8.75481 12.0484 12.7491 16.1809 16.9588C20.3134 21.1685 24.3088 21.3448 28.5392 21.521C32.9654 21.7168 37.5288 21.9126 42.2097 26.6705C46.8905 31.4285 47.0081 36.0102 47.106 40.4157C47.2039 44.645 47.3214 48.6393 51.4539 52.849C55.5864 57.0587 59.5818 57.2349 63.8122 57.4112C68.2385 57.607 72.8018 57.8028 77.4827 62.5607C82.1636 67.3187 82.2811 71.9004 82.379 76.3059C82.477 80.5352 82.5945 84.5295 86.727 88.7392C90.8595 92.9489 94.8548 93.1251 99.0853 93.3014C103.512 93.4971 108.075 93.6929 112.756 98.4509C117.437 103.209 117.554 107.791 117.652 112.196C117.75 116.425 117.868 120.42 122 124.629L120.609 126Z" fill="#838383"/>
<path d="M114.617 132C109.961 127.265 109.844 122.705 109.747 118.321C109.649 114.112 109.532 110.137 105.422 105.948C101.312 101.759 97.3377 101.583 93.1299 101.408C88.7273 101.213 84.1883 101.018 79.5325 96.2832C74.8766 91.5482 74.7598 86.9886 74.6623 82.6044C74.5649 78.3956 74.4481 74.4205 70.3377 70.2312C66.2273 66.0418 62.2533 65.8664 58.0455 65.6911C53.6429 65.4962 49.1039 65.3014 44.4481 60.5664C39.7922 55.8314 39.6753 51.2719 39.5779 46.8876C39.4805 42.6788 39.3637 38.7038 35.2533 34.5144C31.1429 30.325 27.1688 30.1496 22.961 29.9743C18.5584 29.7794 14.0195 29.5846 9.36364 24.8496C4.70779 20.1146 4.59091 15.555 4.49351 11.1708C4.3961 6.96197 4.27923 2.98695 0.168839 -1.20242C-3.94155 -5.39179 -7.91558 -5.56716 -12.1234 -5.74253C-16.526 -5.93739 -21.0649 -6.13223 -25.7208 -10.8672C-30.3766 -15.6022 -30.4935 -20.1618 -30.5909 -24.546C-30.6883 -28.7548 -30.8052 -32.7299 -34.9156 -36.9192C-39.026 -41.1086 -43 -41.284 -47.2078 -41.4593C-51.6104 -41.6542 -56.1493 -41.849 -60.8052 -46.584C-65.461 -51.319 -65.5779 -55.8785 -65.6753 -60.2628C-65.7727 -64.4716 -65.8896 -68.4467 -70 -72.636L-68.6169 -74C-63.961 -69.265 -63.8442 -64.7054 -63.7468 -60.3212C-63.6493 -56.1124 -63.5325 -52.1373 -59.4221 -47.948C-55.3117 -43.7586 -51.3377 -43.5832 -47.1299 -43.4079C-42.7273 -43.213 -38.1883 -43.0182 -33.5325 -38.2832C-28.8766 -33.5482 -28.7597 -28.9886 -28.6623 -24.6044C-28.5649 -20.3956 -28.4481 -16.4205 -24.3377 -12.2312C-20.2273 -8.04181 -16.2532 -7.86644 -12.0455 -7.69107C-7.64285 -7.49622 -3.10389 -7.30137 1.55196 -2.56641C6.2078 2.16856 6.32468 6.72815 6.42209 11.1124C6.51949 15.3212 6.63638 19.2962 10.7468 23.4856C14.8572 27.675 18.8312 27.8504 23.039 28.0257C27.4416 28.2206 31.9805 28.4154 36.6364 33.1504C41.2922 37.8854 41.4091 42.4449 41.5065 46.8292C41.6039 51.038 41.7208 55.013 45.8312 59.2024C49.9416 63.3918 53.9156 63.5672 58.1234 63.7425C62.526 63.9374 67.0649 64.1322 71.7208 68.8672C76.3766 73.6022 76.4935 78.1618 76.5909 82.546C76.6883 86.7548 76.8052 90.7299 80.9156 94.9192C85.026 99.1086 89 99.284 93.2078 99.4593C97.6104 99.6542 102.149 99.849 106.805 104.584C111.461 109.319 111.578 113.879 111.675 118.263C111.773 122.472 111.89 126.447 116 130.636L114.617 132Z" fill="#2E2D2D"/>
<path d="M108.617 139C103.961 134.242 103.844 129.66 103.747 125.255C103.649 121.026 103.532 117.031 99.4221 112.822C95.3117 108.612 91.3377 108.436 87.1299 108.259C82.7273 108.064 78.1883 107.868 73.5325 103.11C68.8766 98.3519 68.7598 93.7701 68.6623 89.3646C68.5649 85.1353 68.4481 81.141 64.3377 76.9313C60.2273 72.7216 56.2533 72.5454 52.0455 72.3692C47.6429 72.1734 43.1039 71.9776 38.4481 67.2196C33.7922 62.4617 33.6753 57.88 33.5779 53.4745C33.4805 49.2452 33.3636 45.2509 29.2533 41.0412C25.1429 36.8315 21.1688 36.6552 16.961 36.479C12.5584 36.2832 8.01948 36.0874 3.36363 31.3295C-1.29221 26.5715 -1.4091 21.9898 -1.5065 17.5843C-1.6039 13.355 -1.72079 9.36067 -5.83118 5.15097C-9.94157 0.941261 -13.9156 0.765045 -18.1234 0.588821C-22.526 0.393021 -27.0649 0.19722 -31.7208 -4.56073C-36.3766 -9.31867 -36.4935 -13.9004 -36.5909 -18.3059C-36.6883 -22.5352 -36.8052 -26.5295 -40.9156 -30.7392C-45.026 -34.9489 -49 -35.1251 -53.2078 -35.3014C-57.6104 -35.4972 -62.1494 -35.693 -66.8052 -40.4509C-71.461 -45.2089 -71.5779 -49.7906 -71.6753 -54.1961C-71.7727 -58.4254 -71.8896 -62.4197 -76 -66.6294L-74.6169 -68C-69.961 -63.2421 -69.8442 -58.6603 -69.7468 -54.2548C-69.6494 -50.0255 -69.5325 -46.0312 -65.4221 -41.8215C-61.3117 -37.6118 -57.3377 -37.4356 -53.1299 -37.2594C-48.7273 -37.0636 -44.1883 -36.8678 -39.5325 -32.1098C-34.8766 -27.3519 -34.7597 -22.7701 -34.6623 -18.3646C-34.5649 -14.1354 -34.4481 -10.141 -30.3377 -5.93133C-26.2273 -1.72162 -22.2532 -1.54539 -18.0455 -1.36918C-13.6429 -1.17338 -9.1039 -0.977577 -4.44806 3.78036C0.207787 8.53831 0.324669 13.12 0.422073 17.5255C0.519478 21.7548 0.636353 25.7492 4.74674 29.9589C8.85713 34.1686 12.8312 34.3448 17.039 34.521C21.4416 34.7168 25.9805 34.9126 30.6364 39.6705C35.2922 44.4285 35.4091 49.0102 35.5065 53.4157C35.6039 57.645 35.7208 61.6393 39.8312 65.849C43.9416 70.0587 47.9156 70.235 52.1234 70.4112C56.526 70.607 61.0649 70.8028 65.7208 75.5607C70.3766 80.3187 70.4935 84.9004 70.5909 89.3059C70.6883 93.5352 70.8052 97.5295 74.9156 101.739C79.026 105.949 83 106.125 87.2078 106.301C91.6104 106.497 96.1493 106.693 100.805 111.451C105.461 116.209 105.578 120.791 105.675 125.196C105.773 129.425 105.89 133.42 110 137.629L108.617 139Z" fill="#838383"/>
<path d="M103.609 146C98.9286 141.242 98.8111 136.66 98.7131 132.255C98.6152 128.026 98.4977 124.031 94.3652 119.821C90.2327 115.612 86.2373 115.436 82.0069 115.259C77.5806 115.064 73.0173 114.868 68.3364 110.11C63.6555 105.352 63.538 100.77 63.4401 96.3646C63.3422 92.1353 63.2246 88.141 59.0922 83.9313C54.9597 79.7216 50.9643 79.5454 46.7339 79.3692C42.3076 79.1734 37.7442 78.9776 33.0634 74.2196C28.3825 69.4617 28.265 64.88 28.1671 60.4744C28.0691 56.2452 27.9516 52.2508 23.8191 48.0411C19.6866 43.8314 15.6912 43.6552 11.4608 43.479C7.03456 43.2832 2.4712 43.0874 -2.20967 38.3294C-6.89055 33.5715 -7.00806 28.9898 -7.10599 24.5843C-7.20391 20.355 -7.32143 16.3607 -11.4539 12.151C-15.5864 7.94125 -19.5818 7.76503 -23.8122 7.58881C-28.2385 7.39301 -32.8018 7.19721 -37.4827 2.43927C-42.1636 -2.31868 -42.2811 -6.9004 -42.379 -11.3059C-42.477 -15.5352 -42.5945 -19.5295 -46.727 -23.7392C-50.8594 -27.9489 -54.8548 -28.1251 -59.0853 -28.3014C-63.5115 -28.4972 -68.0749 -28.693 -72.7558 -33.4509C-77.4366 -38.2089 -77.5541 -42.7906 -77.6521 -47.1961C-77.75 -51.4254 -77.8675 -55.4197 -82 -59.6294L-80.6094 -61C-75.9286 -56.2421 -75.8111 -51.6603 -75.7131 -47.2548C-75.6152 -43.0255 -75.4977 -39.0312 -71.3652 -34.8215C-67.2327 -30.6118 -63.2373 -30.4356 -59.0069 -30.2594C-54.5806 -30.0636 -50.0173 -29.8678 -45.3364 -25.1098C-40.6555 -20.3519 -40.538 -15.7701 -40.4401 -11.3646C-40.3422 -7.13536 -40.2247 -3.14104 -36.0922 1.06867C-31.9597 5.27837 -27.9643 5.45459 -23.7339 5.63081C-19.3076 5.82661 -14.7442 6.02241 -10.0634 10.7804C-5.38249 15.5383 -5.26498 20.12 -5.16705 24.5255C-5.06913 28.7548 -4.95161 32.7491 -0.819122 36.9588C3.31336 41.1685 7.30875 41.3448 11.5392 41.521C15.9654 41.7168 20.5288 41.9126 25.2097 46.6705C29.8905 51.4285 30.0081 56.0102 30.106 60.4157C30.2039 64.645 30.3214 68.6393 34.4539 72.849C38.5864 77.0587 42.5818 77.2349 46.8122 77.4112C51.2385 77.607 55.8018 77.8028 60.4827 82.5607C65.1636 87.3187 65.2811 91.9004 65.379 96.3059C65.477 100.535 65.5945 104.529 69.727 108.739C73.8595 112.949 77.8548 113.125 82.0853 113.301C86.5115 113.497 91.0749 113.693 95.7558 118.451C100.437 123.209 100.554 127.791 100.652 132.196C100.75 136.425 100.868 140.42 105 144.629L103.609 146Z" fill="#750013"/>
<path d="M97.6094 153C92.9286 148.242 92.8111 143.66 92.7131 139.255C92.6152 135.026 92.4977 131.031 88.3652 126.822C84.2327 122.612 80.2373 122.436 76.0069 122.259C71.5806 122.064 67.0173 121.868 62.3364 117.11C57.6555 112.352 57.538 107.77 57.4401 103.365C57.3422 99.1353 57.2246 95.141 53.0922 90.9313C48.9597 86.7216 44.9643 86.5454 40.7339 86.3692C36.3076 86.1734 31.7442 85.9776 27.0634 81.2196C22.3825 76.4617 22.265 71.88 22.1671 67.4745C22.0691 63.2452 21.9516 59.2509 17.8191 55.0412C13.6866 50.8315 9.69124 50.6552 5.46082 50.479C1.03456 50.2832 -3.5288 50.0874 -8.20968 45.3295C-12.8906 40.5715 -13.0081 35.9898 -13.106 31.5843C-13.2039 27.355 -13.3214 23.3607 -17.4539 19.151C-21.5864 14.9413 -25.5818 14.765 -29.8122 14.5888C-34.2385 14.393 -38.8018 14.1972 -43.4827 9.43927C-48.1636 4.68133 -48.2811 0.0996017 -48.379 -4.3059C-48.477 -8.53519 -48.5945 -12.5295 -52.727 -16.7392C-56.8594 -20.9489 -60.8548 -21.1251 -65.0853 -21.3014C-69.5115 -21.4972 -74.0749 -21.693 -78.7558 -26.4509C-83.4366 -31.2089 -83.5541 -35.7906 -83.6521 -40.1961C-83.75 -44.4254 -83.8675 -48.4197 -88 -52.6294L-86.6094 -54C-81.9286 -49.2421 -81.8111 -44.6603 -81.7131 -40.2548C-81.6152 -36.0255 -81.4977 -32.0312 -77.3652 -27.8215C-73.2327 -23.6118 -69.2373 -23.4356 -65.0069 -23.2594C-60.5806 -23.0636 -56.0173 -22.8678 -51.3364 -18.1098C-46.6555 -13.3519 -46.538 -8.77015 -46.4401 -4.36464C-46.3422 -0.135357 -46.2247 3.85897 -42.0922 8.06867C-37.9597 12.2784 -33.9643 12.4546 -29.7339 12.6308C-25.3076 12.8266 -20.7442 13.0224 -16.0634 17.7804C-11.3825 22.5383 -11.265 27.12 -11.167 31.5255C-11.0691 35.7548 -10.9516 39.7491 -6.81912 43.9589C-2.68664 48.1686 1.30875 48.3448 5.53917 48.521C9.96544 48.7168 14.5288 48.9126 19.2097 53.6705C23.8905 58.4285 24.0081 63.0102 24.106 67.4157C24.2039 71.645 24.3214 75.6393 28.4539 79.849C32.5864 84.0587 36.5818 84.235 40.8122 84.4112C45.2385 84.607 49.8018 84.8028 54.4827 89.5607C59.1636 94.3187 59.2811 98.9004 59.379 103.306C59.477 107.535 59.5945 111.53 63.7269 115.739C67.8594 119.949 71.8548 120.125 76.0853 120.301C80.5115 120.497 85.0749 120.693 89.7558 125.451C94.4366 130.209 94.5541 134.791 94.6521 139.196C94.75 143.425 94.8675 147.42 99 151.629L97.6094 153Z" fill="#B8142F"/>
<path d="M91.6169 159C86.961 154.265 86.8441 149.705 86.7467 145.321C86.6494 141.112 86.5325 137.137 82.4221 132.948C78.3117 128.759 74.3377 128.583 70.1299 128.408C65.7273 128.213 61.1883 128.018 56.5325 123.283C51.8766 118.548 51.7598 113.989 51.6623 109.604C51.5649 105.396 51.4481 101.421 47.3377 97.2312C43.2273 93.0418 39.2533 92.8664 35.0455 92.6911C30.6429 92.4962 26.1039 92.3014 21.4481 87.5664C16.7922 82.8315 16.6753 78.2719 16.5779 73.8876C16.4805 69.6788 16.3636 65.7038 12.2533 61.5144C8.14286 57.325 4.16882 57.1497 -0.0389633 56.9743C-4.44157 56.7794 -8.98052 56.5846 -13.6364 51.8496C-18.2922 47.1146 -18.4091 42.5551 -18.5065 38.1708C-18.6039 33.962 -18.7208 29.987 -22.8312 25.7976C-26.9416 21.6082 -30.9156 21.4328 -35.1234 21.2575C-39.526 21.0626 -44.0649 20.8678 -48.7208 16.1328C-53.3766 11.3978 -53.4935 6.83825 -53.5909 2.45403C-53.6883 -1.75483 -53.8052 -5.72985 -57.9156 -9.91922C-62.026 -14.1086 -66 -14.284 -70.2078 -14.4593C-74.6104 -14.6542 -79.1494 -14.849 -83.8052 -19.584C-88.461 -24.319 -88.5779 -28.8785 -88.6753 -33.2628C-88.7727 -37.4716 -88.8896 -41.4467 -93 -45.636L-91.6169 -47C-86.961 -42.265 -86.8442 -37.7054 -86.7468 -33.3212C-86.6494 -29.1124 -86.5325 -25.1373 -82.4221 -20.948C-78.3117 -16.7586 -74.3377 -16.5832 -70.1299 -16.4079C-65.7273 -16.213 -61.1883 -16.0182 -56.5325 -11.2832C-51.8766 -6.54824 -51.7597 -1.98865 -51.6623 2.39557C-51.5649 6.60443 -51.4481 10.5795 -47.3377 14.7688C-43.2273 18.9582 -39.2532 19.1336 -35.0455 19.3089C-30.6429 19.5038 -26.1039 19.6986 -21.4481 24.4336C-16.7922 29.1686 -16.6753 33.7281 -16.5779 38.1124C-16.4805 42.3212 -16.3636 46.2962 -12.2533 50.4856C-8.14286 54.675 -4.16883 54.8504 0.0389633 55.0257C4.44156 55.2206 8.98052 55.4154 13.6364 60.1504C18.2922 64.8854 18.4091 69.445 18.5065 73.8292C18.6039 78.038 18.7208 82.0131 22.8312 86.2024C26.9416 90.3918 30.9156 90.5672 35.1234 90.7425C39.526 90.9374 44.0649 91.1322 48.7208 95.8672C53.3766 100.602 53.4935 105.162 53.5909 109.546C53.6883 113.755 53.8052 117.73 57.9156 121.919C62.026 126.109 66 126.284 70.2078 126.459C74.6104 126.654 79.1494 126.849 83.8052 131.584C88.461 136.319 88.5779 140.879 88.6753 145.263C88.7727 149.472 88.8896 153.447 93 157.636L91.6169 159Z" fill="#750013"/>
<path d="M86.6095 166C81.9286 161.242 81.8111 156.66 81.7131 152.255C81.6152 148.026 81.4977 144.031 77.3652 139.822C73.2327 135.612 69.2373 135.436 65.0069 135.259C60.5806 135.064 56.0173 134.868 51.3364 130.11C46.6555 125.352 46.538 120.77 46.4401 116.365C46.3422 112.135 46.2247 108.141 42.0922 103.931C37.9597 99.7216 33.9643 99.5454 29.7339 99.3692C25.3076 99.1734 20.7442 98.9776 16.0634 94.2196C11.3825 89.4617 11.265 84.88 11.1671 80.4745C11.0691 76.2452 10.9516 72.2508 6.81912 68.0411C2.68663 63.8314 -1.30875 63.6552 -5.53917 63.479C-9.96544 63.2832 -14.5288 63.0874 -19.2097 58.3295C-23.8905 53.5715 -24.0081 48.9898 -24.106 44.5843C-24.2039 40.355 -24.3214 36.3607 -28.4539 32.151C-32.5864 27.9413 -36.5818 27.765 -40.8122 27.5888C-45.2385 27.393 -49.8018 27.1972 -54.4827 22.4393C-59.1636 17.6813 -59.2811 13.0996 -59.379 8.6941C-59.477 4.46481 -59.5945 0.470482 -63.727 -3.73922C-67.8594 -7.94893 -71.8548 -8.12514 -76.0853 -8.30136C-80.5115 -8.49717 -85.0749 -8.69297 -89.7558 -13.4509C-94.4366 -18.2089 -94.5541 -22.7906 -94.6521 -27.1961C-94.75 -31.4254 -94.8675 -35.4197 -99 -39.6294L-97.6094 -41C-92.9286 -36.2421 -92.8111 -31.6603 -92.7131 -27.2548C-92.6152 -23.0255 -92.4977 -19.0312 -88.3652 -14.8215C-84.2327 -10.6118 -80.2373 -10.4356 -76.0069 -10.2594C-71.5806 -10.0636 -67.0173 -9.86777 -62.3364 -5.10982C-57.6555 -0.351879 -57.538 4.22984 -57.4401 8.63535C-57.3422 12.8646 -57.2247 16.859 -53.0922 21.0687C-48.9597 25.2784 -44.9643 25.4546 -40.7339 25.6308C-36.3076 25.8266 -31.7442 26.0224 -27.0634 30.7804C-22.3825 35.5383 -22.265 40.12 -22.167 44.5255C-22.0691 48.7548 -21.9516 52.7491 -17.8191 56.9589C-13.6866 61.1686 -9.69125 61.3448 -5.46083 61.521C-1.03456 61.7168 3.52881 61.9126 8.20968 66.6705C12.8906 71.4285 13.0081 76.0102 13.106 80.4157C13.2039 84.645 13.3214 88.6393 17.4539 92.849C21.5864 97.0587 25.5818 97.235 29.8122 97.4112C34.2385 97.607 38.8018 97.8028 43.4827 102.561C48.1636 107.319 48.2811 111.9 48.379 116.306C48.477 120.535 48.5945 124.53 52.727 128.739C56.8595 132.949 60.8548 133.125 65.0853 133.301C69.5115 133.497 74.0749 133.693 78.7558 138.451C83.4366 143.209 83.5542 147.791 83.6521 152.196C83.75 156.425 83.8675 160.42 88 164.629L86.6095 166Z" fill="#B8142F"/>
</g>
</g>
<defs>
<filter id="filter0_d_2_11" x="0" y="0" width="46" height="46" filterUnits="userSpaceOnUse" color-interpolation-filters="sRGB">
<feFlood flood-opacity="0" result="BackgroundImageFix"/>
<feColorMatrix in="SourceAlpha" type="matrix" values="0 0 0 0 0 0 0 0 0 0 0 0 0 0 0 0 0 0 127 0" result="hardAlpha"/>
<feOffset/>
<feGaussianBlur stdDeviation="2"/>
<feComposite in2="hardAlpha" operator="out"/>
<feColorMatrix type="matrix" values="0 0 0 0 0.0941176 0 0 0 0 0.352941 0 0 0 0 0.615686 0 0 0 0.55 0"/>
<feBlend mode="normal" in2="BackgroundImageFix" result="effect1_dropShadow_2_11"/>
<feBlend mode="normal" in="SourceGraphic" in2="effect1_dropShadow_2_11" result="shape"/>
</filter>
<clipPath id="clip0_2_11">
<rect x="4" y="4" width="38" height="38" rx="19" fill="white"/>
</clipPath>
</defs>
</svg>
